RobotoSerifDisplay-RegularWdth150 00m.ufo
<glyph name="at" format="2">
  <advance width="639"/>
  <unicode hex="0040"/>
  <outline>
    <contour>
      <point x="271" y="49" type="curve" smooth="yes"/>
      <point x="334" y="49"/>
      <point x="373" y="108"/>
      <point x="407" y="226" type="curve"/>
      <point x="388" y="233" type="line"/>
      <point x="361" y="129"/>
      <point x="326" y="81"/>
      <point x="287" y="81" type="curve" smooth="yes"/>
      <point x="251" y="81"/>
      <point x="238" y="127"/>
      <point x="238" y="202" type="curve" smooth="yes"/>
      <point x="238" y="331"/>
      <point x="273" y="443"/>
      <point x="339" y="443" type="curve" smooth="yes"/>
      <point x="376" y="443"/>
      <point x="395" y="409"/>
      <point x="409" y="376" type="curve"/>
      <point x="431" y="379" type="line"/>
      <point x="406" y="444"/>
      <point x="381" y="474"/>
      <point x="331" y="474" type="curve" smooth="yes"/>
      <point x="225" y="474"/>
      <point x="165" y="346"/>
      <point x="165" y="213" type="curve" smooth="yes"/>
      <point x="165" y="99"/>
      <point x="211" y="49"/>
    </contour>
    <contour>
      <point x="327" y="-122" type="curve" smooth="yes"/>
      <point x="162" y="-122"/>
      <point x="69" y="12"/>
      <point x="69" y="225" type="curve" smooth="yes"/>
      <point x="69" y="465"/>
      <point x="188" y="643"/>
      <point x="360" y="643.0" type="curve" smooth="yes"/>
      <point x="491" y="643"/>
      <point x="561" y="540"/>
      <point x="561" y="351" type="curve" smooth="yes"/>
      <point x="561" y="195"/>
      <point x="510" y="86"/>
      <point x="460" y="86" type="curve" smooth="yes"/>
      <point x="434" y="86"/>
      <point x="420" y="114"/>
      <point x="428" y="177" type="curve" smooth="yes"/>
      <point x="463" y="468" type="line"/>
      <point x="417" y="468" type="line"/>
      <point x="390" y="431" type="line"/>
      <point x="389" y="426" type="line"/>
      <point x="355" y="139" type="line"/>
      <point x="358" y="140"/>
      <point x="363" y="142"/>
      <point x="362" y="143" type="curve"/>
      <point x="357" y="99"/>
      <point x="392" y="55"/>
      <point x="444" y="55.0" type="curve" smooth="yes"/>
      <point x="534" y="55"/>
      <point x="603" y="184"/>
      <point x="603" y="353" type="curve" smooth="yes"/>
      <point x="603" y="560"/>
      <point x="507" y="673"/>
      <point x="360" y="673" type="curve" smooth="yes"/>
      <point x="167" y="673"/>
      <point x="24" y="487"/>
      <point x="24" y="228" type="curve" smooth="yes"/>
      <point x="24" y="-8"/>
      <point x="140" y="-153"/>
      <point x="319" y="-153" type="curve" smooth="yes"/>
      <point x="399" y="-153"/>
      <point x="468" y="-125"/>
      <point x="510" y="-86" type="curve"/>
      <point x="494" y="-63" type="line"/>
      <point x="451" y="-98"/>
      <point x="397" y="-122"/>
    </contour>
  </outline>
</glyph>
<glyph name="J" format="2">
  <advance width="414"/>
  <unicode hex="004A"/>
  <outline>
    <contour>
      <point x="182" y="710" type="line"/>
      <point x="182" y="680" type="line"/>
      <point x="194" y="680" type="line" smooth="yes"/>
      <point x="225" y="680"/>
      <point x="250" y="673"/>
      <point x="250" y="645" type="curve" smooth="yes"/>
      <point x="250" y="169" type="line" smooth="yes"/>
      <point x="250" y="50"/>
      <point x="216" y="25"/>
      <point x="169" y="25" type="curve" smooth="yes"/>
      <point x="128" y="25"/>
      <point x="96" y="44"/>
      <point x="87" y="75" type="curve"/>
      <point x="66" y="118"/>
      <point x="72" y="49"/>
      <point x="105" y="36" type="curve"/>
      <point x="105" y="155" type="line"/>
      <point x="30" y="155" type="line"/>
      <point x="30" y="53" type="line"/>
      <point x="52" y="25"/>
      <point x="93" y="-10"/>
      <point x="172" y="-10" type="curve" smooth="yes"/>
      <point x="259" y="-10"/>
      <point x="333" y="32"/>
      <point x="333" y="169" type="curve" smooth="yes"/>
      <point x="333" y="645" type="line" smooth="yes"/>
      <point x="333" y="673"/>
      <point x="358" y="680"/>
      <point x="385" y="680" type="curve" smooth="yes"/>
      <point x="390" y="680" type="line"/>
      <point x="390" y="710" type="line"/>
    </contour>
  </outline>
</glyph>
<glyph name="sterling" format="2">
  <advance width="393"/>
  <unicode hex="00A3"/>
  <outline>
    <contour>
      <point x="17.705000000000002" y="-12.85" type="line"/>
      <point x="129.0425" y="17.9"/>
      <point x="180.89" y="109.85"/>
      <point x="180.89" y="230.8" type="curve" smooth="yes"/>
      <point x="180.89" y="357.6581913183825"/>
      <point x="138.17000000000002" y="424.29547427652"/>
      <point x="138.17000000000002" y="541.2" type="curve" smooth="yes"/>
      <point x="138.17000000000002" y="638.5528209459575"/>
      <point x="174.655" y="686.5"/>
      <point x="228.0775" y="686.5" type="curve" smooth="yes"/>
      <point x="268.54" y="686.5"/>
      <point x="294.7375" y="660.4"/>
      <point x="310.9025" y="631.85" type="curve"/>
      <point x="313.8725" y="652.0"/>
      <point x="303.21750000000003" y="677.3"/>
      <point x="282.9325" y="679.2" type="curve"/>
      <point x="282.9325" y="569.3" type="line"/>
      <point x="353.885" y="569.3" type="line"/>
      <point x="353.885" y="662.95" type="line"/>
      <point x="334.0075" y="687.65"/>
      <point x="289.88" y="720.0"/>
      <point x="224.6375" y="720.0" type="curve" smooth="yes"/>
      <point x="124.395" y="720.0"/>
      <point x="57.135000000000005" y="640.4919716494625"/>
      <point x="57.135000000000005" y="525.2" type="curve" smooth="yes"/>
      <point x="57.135000000000005" y="401.844708201935"/>
      <point x="121.2125" y="341.96068611989"/>
      <point x="121.2125" y="208.35" type="curve" smooth="yes"/>
      <point x="121.2125" y="109.35"/>
      <point x="98.595" y="59.9"/>
      <point x="17.705000000000002" y="26.65" type="curve"/>
    </contour>
    <contour>
      <point x="270.455" y="-10.0" type="curve" smooth="yes"/>
      <point x="331.545" y="-10.0"/>
      <point x="366.59" y="77.0"/>
      <point x="379.63" y="179.3" type="curve"/>
      <point x="352.3675" y="190.5" type="line"/>
      <point x="338.445" y="108.65"/>
      <point x="314.58" y="83.7"/>
      <point x="272.915" y="83.7" type="curve" smooth="yes"/>
      <point x="231.4325" y="83.7"/>
      <point x="198.99" y="105.9"/>
      <point x="150.7025" y="166.65" type="curve"/>
      <point x="142.1775" y="161.4"/>
      <point x="133.3075" y="148.55"/>
      <point x="132.63" y="139.7" type="curve"/>
      <point x="201.4075" y="55.35"/>
      <point x="215.705" y="-10.0"/>
    </contour>
    <contour>
      <point x="17.705000000000002" y="356.5" type="line"/>
      <point x="17.705000000000002" y="320.5" type="line"/>
      <point x="289.3425" y="320.5" type="line"/>
      <point x="289.3425" y="356.5" type="line"/>
    </contour>
  </outline>
</glyph>
<glyph name="yen" format="2">
  <advance width="393"/>
  <unicode hex="00A5"/>
  <outline>
    <contour>
      <point x="43.3425" y="345.65" type="line"/>
      <point x="43.3425" y="310.25" type="line"/>
      <point x="352.23" y="310.25" type="line"/>
      <point x="352.23" y="345.65" type="line"/>
    </contour>
    <contour>
      <point x="43.3425" y="215.55" type="line"/>
      <point x="43.3425" y="180.15" type="line"/>
      <point x="352.23" y="180.15" type="line"/>
      <point x="352.23" y="215.55" type="line"/>
    </contour>
    <contour>
      <point x="157.02" y="340.9" type="line"/>
      <point x="157.02" y="68.6" type="line" smooth="yes"/>
      <point x="157.02" y="39.6"/>
      <point x="133.0275" y="32.6"/>
      <point x="104.8625" y="32.6" type="curve" smooth="yes"/>
      <point x="94.135" y="32.6" type="line"/>
      <point x="94.135" y="0.0" type="line"/>
      <point x="302.5425" y="0.0" type="line"/>
      <point x="302.5425" y="32.6" type="line"/>
      <point x="291.6875" y="32.6" type="line" smooth="yes"/>
      <point x="264.3725" y="32.6"/>
      <point x="239.53" y="39.6"/>
      <point x="239.53" y="68.6" type="curve" smooth="yes"/>
      <point x="239.53" y="340.9" type="line"/>
    </contour>
    <contour>
      <point x="225.125" y="291.05" type="line"/>
      <point x="329.16" y="611.7" type="line" smooth="yes"/>
      <point x="344.5425" y="659.0"/>
      <point x="360.1525" y="677.4"/>
      <point x="379.34" y="677.4" type="curve" smooth="yes"/>
      <point x="383.295" y="677.4" type="line"/>
      <point x="383.295" y="710.0" type="line"/>
      <point x="251.4925" y="710.0" type="line"/>
      <point x="251.4925" y="677.4" type="line"/>
      <point x="268.24" y="677.4" type="line" smooth="yes"/>
      <point x="300.2425" y="677.4"/>
      <point x="310.12" y="666.6"/>
      <point x="310.12" y="654.65" type="curve"/>
      <point x="210.6975" y="338.45" type="line"/>
      <point x="234.29500000000002" y="340.45" type="line"/>
      <point x="120.55250000000001" y="663.6" type="line"/>
      <point x="120.55250000000001" y="673.45"/>
      <point x="146.5775" y="677.4"/>
      <point x="167.4425" y="677.4" type="curve" smooth="yes"/>
      <point x="177.3525" y="677.4" type="line"/>
      <point x="177.3525" y="710.0" type="line"/>
      <point x="3.7725000000000004" y="710.0" type="line"/>
      <point x="3.7725000000000004" y="677.4" type="line"/>
      <point x="6.9" y="677.4" type="line" smooth="yes"/>
      <point x="22.9825" y="677.4"/>
      <point x="34.8925" y="674.3"/>
      <point x="45.019999999999996" y="647.6" type="curve" smooth="yes"/>
      <point x="171.7475" y="293.05" type="line"/>
    </contour>
  </outline>
</glyph>
<glyph name="acute" format="2">
  <advance width="351.25"/>
  <unicode hex="00B4"/>
  <anchor x="152.4" y="527.0" name="_top"/>
  <outline>
    <contour>
      <point x="164.3525" y="715.05" type="curve" smooth="yes"/>
      <point x="136.1875" y="588.8" type="line"/>
      <point x="136.1875" y="574.85" type="line"/>
      <point x="155.5925" y="574.85" type="line"/>
      <point x="215.48000000000002" y="667.2" type="line" smooth="yes"/>
      <point x="232.145" y="687.8"/>
      <point x="242.3125" y="709.6"/>
      <point x="242.3125" y="728.95" type="curve" smooth="yes"/>
      <point x="242.3125" y="751.95"/>
      <point x="228.5" y="769.75"/>
      <point x="208.225" y="769.75" type="curve" smooth="yes"/>
      <point x="186.9825" y="769.75"/>
      <point x="173.4475" y="752.55"/>
    </contour>
  </outline>
</glyph>
<glyph name="cedilla" format="2">
  <advance width="421.5"/>
  <unicode hex="00B8"/>
  <anchor x="208.6" y="34.0" name="_bottom"/>
  <outline>
    <contour>
      <point x="217.3175" y="4.0" type="line"/>
      <point x="170.6425" y="4.0" type="line"/>
      <point x="149.82" y="-95.3" type="line"/>
      <point x="167.675" y="-95.3" type="line" smooth="yes"/>
      <point x="205.5575" y="-95.3"/>
      <point x="217.2625" y="-117.65"/>
      <point x="217.2625" y="-147.1" type="curve" smooth="yes"/>
      <point x="217.2625" y="-182.15"/>
      <point x="202.3525" y="-203.65"/>
      <point x="178.0375" y="-203.65" type="curve" smooth="yes"/>
      <point x="154.32083333333333" y="-203.65"/>
      <point x="137.18866095345814" y="-190.6681440098999"/>
      <point x="121.4825" y="-159.15" type="curve"/>
      <point x="103.53" y="-181.5" type="line"/>
      <point x="121.02" y="-215.3"/>
      <point x="147.7875" y="-236.1"/>
      <point x="188.6275" y="-236.1" type="curve" smooth="yes"/>
      <point x="237.0125" y="-236.1"/>
      <point x="276.3125" y="-207.95"/>
      <point x="276.3125" y="-143.65" type="curve" smooth="yes"/>
      <point x="276.3125" y="-92.301875"/>
      <point x="237.83033405265678" y="-60.349993526111305"/>
      <point x="182.8125" y="-66.3" type="curve"/>
      <point x="180.3689338553438" y="-67.49702204821874"/>
      <point x="185.28879001440785" y="-77.89932831652416"/>
      <point x="185.6075" y="-77.4" type="curve"/>
    </contour>
  </outline>
</glyph>
<glyph name="Eth" format="2">
  <advance width="538"/>
  <unicode hex="00D0"/>
  <outline>
    <contour>
      <point x="23.4875" y="377.45" type="line"/>
      <point x="23.4875" y="342.05" type="line"/>
      <point x="287.0525" y="342.05" type="line"/>
      <point x="287.0525" y="377.45" type="line"/>
    </contour>
    <component base="D" xOffset="-73.27"/>
  </outline>
</glyph>
<glyph name="multiply" format="2">
  <advance width="393"/>
  <unicode hex="00D7"/>
  <outline>
    <contour>
      <point x="311.1625" y="532.6" type="line"/>
      <point x="59.735" y="172.85" type="line"/>
      <point x="82.0975" y="147.4" type="line"/>
      <point x="333.6525" y="507.15" type="line"/>
    </contour>
    <contour>
      <point x="82.0975" y="532.6" type="line"/>
      <point x="58.885" y="507.15" type="line"/>
      <point x="311.1625" y="147.4" type="line"/>
      <point x="333.525" y="172.85" type="line"/>
    </contour>
  </outline>
</glyph>
<glyph name="Oslash" format="2">
  <advance width="553"/>
  <unicode hex="00D8"/>
  <anchor x="275.0" y="731.0" name="top"/>
  <outline>
    <contour>
      <point x="42.0" y="-15.0" type="line"/>
      <point x="82.0" y="-15.0" type="line"/>
      <point x="508.0" y="725.0" type="line"/>
      <point x="468.0" y="725.0" type="line"/>
    </contour>
    <component base="O" xOffset="36"/>
  </outline>
</glyph>
<glyph name="Hbar" format="2">
  <advance width="550"/>
  <unicode hex="0126"/>
  <outline>
    <contour>
      <point x="16" y="509" type="line"/>
      <point x="534" y="509" type="line"/>
      <point x="534" y="543" type="line"/>
      <point x="16" y="543" type="line"/>
    </contour>
    <component base="H"/>
  </outline>
</glyph>
<glyph name="kgreenlandic" format="2">
  <advance width="433"/>
  <unicode hex="0138"/>
  <outline>
    <contour>
      <point x="428.19" y="0.0" type="line"/>
      <point x="428.19" y="32.3" type="line"/>
      <point x="427.89" y="32.3" type="line"/>
      <point x="416.1275" y="32.3"/>
      <point x="389.8125" y="43.2"/>
      <point x="375.43" y="68.05" type="curve" smooth="yes"/>
      <point x="221.225" y="328.5" type="line"/>
      <point x="210.5925" y="289.0" type="line"/>
      <point x="326.65749999999997" y="440.85" type="line" smooth="yes"/>
      <point x="351.0175" y="472.25"/>
      <point x="379.9325" y="485.5"/>
      <point x="398.6175" y="485.5" type="curve"/>
      <point x="399.64" y="485.5" type="line"/>
      <point x="399.64" y="517.8" type="line"/>
      <point x="248.495" y="517.8" type="line"/>
      <point x="248.495" y="485.5" type="line"/>
      <point x="256.2775" y="485.5" type="line"/>
      <point x="277.11" y="485.5"/>
      <point x="302.02750000000003" y="476.8"/>
      <point x="302.02750000000003" y="461.8" type="curve"/>
      <point x="163.7425" y="279.1" type="line"/>
      <point x="163.7425" y="272.65" type="line"/>
      <point x="291.6425" y="44.1" type="line"/>
      <point x="291.6425" y="37.15"/>
      <point x="264.2725" y="32.3"/>
      <point x="253.1675" y="32.3" type="curve"/>
      <point x="252.845" y="32.3" type="line"/>
      <point x="252.845" y="0.0" type="line"/>
    </contour>
    <contour>
      <point x="21.015" y="0.0" type="line"/>
      <point x="196.90499999999997" y="0.0" type="line"/>
      <point x="196.90499999999997" y="32.3" type="line"/>
      <point x="196.5825" y="32.3" type="line" smooth="yes"/>
      <point x="174.385" y="32.3"/>
      <point x="151.39249999999998" y="36.2"/>
      <point x="151.39249999999998" y="42.2" type="curve" smooth="yes"/>
      <point x="151.39249999999998" y="517.8" type="line"/>
      <point x="21.015" y="517.8" type="line"/>
      <point x="21.015" y="485.3" type="line"/>
      <point x="28.9925" y="483.3" type="line" smooth="yes"/>
      <point x="57.917500000000004" y="475.4"/>
      <point x="72.2275" y="467.6"/>
      <point x="72.2275" y="439.25" type="curve" smooth="yes"/>
      <point x="72.2275" y="67.8" type="line" smooth="yes"/>
      <point x="72.2275" y="39.25"/>
      <point x="50.5125" y="32.3"/>
      <point x="22.015" y="32.3" type="curve"/>
      <point x="21.015" y="32.3" type="line"/>
    </contour>
  </outline>
</glyph>
<glyph name="circumflex" format="2">
  <advance width="350.655"/>
  <unicode hex="02C6"/>
  <anchor x="171.9" y="529.0" name="_top"/>
  <outline>
    <contour>
      <point x="209.6125" y="747.0" type="line"/>
      <point x="287.28" y="590.5" type="line"/>
      <point x="287.28" y="579.6" type="line"/>
      <point x="259.0175" y="579.6" type="line"/>
      <point x="161.7625" y="693.15" type="line"/>
      <point x="189.07999999999998" y="693.15" type="line"/>
      <point x="91.525" y="579.6" type="line"/>
      <point x="68.185" y="579.6" type="line"/>
      <point x="68.185" y="590.5" type="line"/>
      <point x="145.875" y="747.0" type="line"/>
    </contour>
  </outline>
</glyph>
<glyph name="pi" format="2">
  <advance width="400"/>
  <unicode hex="03C0"/>
  <outline>
    <contour>
      <point x="161" y="0" type="line"/>
      <point x="161" y="486" type="line"/>
      <point x="109" y="486" type="line"/>
      <point x="102" y="217"/>
      <point x="85" y="183"/>
      <point x="85" y="0" type="curve"/>
    </contour>
    <contour>
      <point x="423" y="434" type="line"/>
      <point x="423" y="518" type="line"/>
      <point x="115" y="518" type="line" smooth="yes"/>
      <point x="29" y="518"/>
      <point x="-19" y="460"/>
      <point x="-40" y="350" type="curve"/>
      <point x="-9" y="337" type="line"/>
      <point x="5" y="416"/>
      <point x="35" y="434"/>
      <point x="85" y="434" type="curve" smooth="yes"/>
    </contour>
    <contour>
      <point x="335" y="80" type="curve" smooth="yes"/>
      <point x="335" y="486" type="line"/>
      <point x="280" y="486" type="line"/>
      <point x="273" y="247"/>
      <point x="259" y="172"/>
      <point x="259" y="88" type="curve" smooth="yes"/>
      <point x="259" y="24"/>
      <point x="295" y="-10"/>
      <point x="347" y="-10" type="curve" smooth="yes"/>
      <point x="396" y="-10"/>
      <point x="425" y="33"/>
      <point x="441" y="84" type="curve"/>
      <point x="421" y="98" type="line"/>
      <point x="406" y="57"/>
      <point x="389" y="29"/>
      <point x="366" y="29" type="curve" smooth="yes"/>
      <point x="345" y="29"/>
      <point x="335" y="43"/>
    </contour>
  </outline>
</glyph>
<glyph name="quoteright" format="2">
  <advance width="155"/>
  <unicode hex="2019"/>
  <outline>
    <contour>
      <point x="56" y="525" type="line"/>
      <point x="88" y="550"/>
      <point x="135" y="596"/>
      <point x="135" y="656" type="curve" smooth="yes"/>
      <point x="135" y="698"/>
      <point x="112" y="720"/>
      <point x="79" y="720" type="curve" smooth="yes"/>
      <point x="48" y="720"/>
      <point x="27" y="700"/>
      <point x="27" y="671" type="curve" smooth="yes"/>
      <point x="27" y="641"/>
      <point x="50" y="624"/>
      <point x="76" y="624" type="curve" smooth="yes"/>
      <point x="99" y="624"/>
      <point x="114" y="637"/>
      <point x="114" y="657" type="curve"/>
      <point x="111" y="658"/>
      <point x="110" y="656"/>
      <point x="109" y="649" type="curve"/>
      <point x="105" y="608"/>
      <point x="72" y="573"/>
      <point x="25" y="551" type="curve"/>
    </contour>
  </outline>
</glyph>
<glyph name="bullet" format="2">
  <advance width="281"/>
  <unicode hex="2022"/>
  <outline>
    <contour>
      <point x="141" y="238" type="curve" smooth="yes"/>
      <point x="200" y="238"/>
      <point x="240" y="280"/>
      <point x="240" y="338" type="curve" smooth="yes"/>
      <point x="240" y="397"/>
      <point x="198" y="439"/>
      <point x="141" y="439" type="curve" smooth="yes"/>
      <point x="81" y="439"/>
      <point x="39" y="397"/>
      <point x="39" y="338" type="curve" smooth="yes"/>
      <point x="39" y="280"/>
      <point x="81" y="238"/>
    </contour>
  </outline>
</glyph>
<glyph name="fraction" format="2">
  <advance width="292"/>
  <unicode hex="2044"/>
  <outline>
    <contour>
      <point x="340.145" y="710.0" type="line"/>
      <point x="-69.8325" y="0.0" type="line"/>
      <point x="-35.334999999999994" y="0.0" type="line"/>
      <point x="373.92" y="710.0" type="line"/>
    </contour>
  </outline>
</glyph>
<glyph name="Euro" format="2">
  <advance width="393.4"/>
  <unicode hex="20AC"/>
  <outline>
    <contour>
      <point x="12.9325" y="440.8" type="line"/>
      <point x="12.9325" y="405.65" type="line"/>
      <point x="287.6975" y="405.65" type="line"/>
      <point x="287.6975" y="440.8" type="line"/>
    </contour>
    <contour>
      <point x="12.9325" y="285.75" type="line"/>
      <point x="12.9325" y="250.6" type="line"/>
      <point x="253.9875" y="250.6" type="line"/>
      <point x="253.9875" y="285.75" type="line"/>
    </contour>
    <contour>
      <point x="239.0" y="-10.0" type="curve" smooth="yes"/>
      <point x="320.14" y="-10.0"/>
      <point x="367.2675" y="68.6"/>
      <point x="385.94" y="162.0" type="curve"/>
      <point x="359.3125" y="178.45" type="line"/>
      <point x="345.735" y="98.9"/>
      <point x="308.1425" y="25.65"/>
      <point x="251.5575" y="25.65" type="curve" smooth="yes"/>
      <point x="186.1225" y="25.65"/>
      <point x="142.9325" y="116.69514851485148"/>
      <point x="142.9325" y="355.0" type="curve" smooth="yes"/>
      <point x="142.9325" y="599.3360396039604"/>
      <point x="188.81" y="686.5"/>
      <point x="260.06" y="686.5" type="curve" smooth="yes"/>
      <point x="297.8225" y="686.5"/>
      <point x="322.17" y="659.4"/>
      <point x="335.0575" y="631.25" type="curve"/>
      <point x="348.2925" y="647.15"/>
      <point x="330.51944045422" y="676.347546628815"/>
      <point x="302.96" y="685.65" type="curve"/>
      <point x="302.96" y="575.0" type="line"/>
      <point x="377.3625" y="575.0" type="line"/>
      <point x="377.3625" y="673.15" type="line"/>
      <point x="360.6125" y="690.9"/>
      <point x="322.8175" y="720.0"/>
      <point x="260.3825" y="720.0" type="curve" smooth="yes"/>
      <point x="148.025" y="720.0"/>
      <point x="60.885" y="609.1"/>
      <point x="60.885" y="355.0" type="curve" smooth="yes"/>
      <point x="60.885" y="102.0"/>
      <point x="136.4025" y="-10.0"/>
    </contour>
  </outline>
</glyph>
<glyph name="uni20B8" format="2">
  <advance width="393"/>
  <unicode hex="20B8"/>
  <outline>
    <contour>
      <point x="14.76" y="710.0" type="line"/>
      <point x="14.76" y="674.95" type="line"/>
      <point x="379.49" y="674.95" type="line"/>
      <point x="379.49" y="710.0" type="line"/>
    </contour>
    <contour>
      <point x="157.3325" y="68.6" type="line" smooth="yes"/>
      <point x="157.3325" y="39.6"/>
      <point x="132.64" y="32.6"/>
      <point x="105.175" y="32.6" type="curve" smooth="yes"/>
      <point x="94.4475" y="32.6" type="line"/>
      <point x="94.4475" y="0.0" type="line"/>
      <point x="299.8025" y="0.0" type="line"/>
      <point x="299.8025" y="32.6" type="line"/>
      <point x="289.075" y="32.6" type="line" smooth="yes"/>
      <point x="260.7375" y="32.6"/>
      <point x="236.9175" y="39.6"/>
      <point x="236.9175" y="68.6" type="curve" smooth="yes"/>
      <point x="236.9175" y="531.9" type="line"/>
      <point x="258.62" y="531.9" type="line" smooth="yes"/>
      <point x="312.3025" y="531.9"/>
      <point x="334.78" y="517.3"/>
      <point x="339.585" y="475.45" type="curve" smooth="yes"/>
      <point x="352.045" y="380.1" type="line"/>
      <point x="379.49" y="380.1" type="line"/>
      <point x="379.49" y="566.95" type="line"/>
      <point x="14.76" y="566.95" type="line"/>
      <point x="14.76" y="380.1" type="line"/>
      <point x="42.205" y="380.1" type="line"/>
      <point x="53.9425" y="475.45" type="line" smooth="yes"/>
      <point x="58.7475" y="517.3"/>
      <point x="81.925" y="531.9"/>
      <point x="135.63" y="531.9" type="curve" smooth="yes"/>
      <point x="157.3325" y="531.9" type="line"/>
    </contour>
  </outline>
</glyph>
<glyph name="numero" format="2">
  <advance width="855"/>
  <unicode hex="2116"/>
  <outline>
    <contour>
      <point x="558.8725" y="237.95" type="line"/>
      <point x="800.065" y="237.95" type="line"/>
      <point x="800.065" y="199.45" type="line"/>
      <point x="558.8725" y="199.45" type="line"/>
    </contour>
    <component base="N" xOffset="-172.465"/>
    <component base="ordmasculine" xOffset="543.485"/>
  </outline>
</glyph>
<glyph name="estimated" format="2">
  <advance width="590"/>
  <unicode hex="212E"/>
  <outline>
    <contour>
      <point x="127.6" y="132.4" type="line"/>
      <point x="167.75" y="59.15"/>
      <point x="226.95" y="26.0"/>
      <point x="295.05" y="26.0" type="curve" smooth="yes"/>
      <point x="399.01" y="26.0"/>
      <point x="475.915" y="106.8"/>
      <point x="514.2925" y="236.0" type="curve"/>
      <point x="543.65" y="236.0" type="line"/>
      <point x="507.95" y="98.0"/>
      <point x="418.2" y="-10.0"/>
      <point x="295.05" y="-10.0" type="curve" smooth="yes"/>
      <point x="148.1" y="-10.0"/>
      <point x="34.7" y="150.0"/>
      <point x="34.7" y="355.0" type="curve" smooth="yes"/>
      <point x="34.7" y="560.0"/>
      <point x="148.1" y="720.0"/>
      <point x="295.05" y="720.0" type="curve" smooth="yes"/>
      <point x="442.0" y="720.0"/>
      <point x="555.4" y="560.0"/>
      <point x="555.4" y="355.0" type="curve"/>
      <point x="97.35" y="355.0" type="line"/>
      <point x="97.35" y="391.0" type="line"/>
      <point x="462.5" y="391.0" type="line"/>
      <point x="462.5" y="579.65" type="line"/>
      <point x="422.35" y="648.95"/>
      <point x="363.15" y="684.0"/>
      <point x="295.05" y="684.0" type="curve" smooth="yes"/>
      <point x="226.95" y="684.0"/>
      <point x="166.7725" y="647.05"/>
      <point x="127.6" y="578.7" type="curve"/>
    </contour>
  </outline>
</glyph>
<glyph name="arrowleft" format="2">
  <advance width="519"/>
  <unicode hex="2190"/>
  <outline>
    <contour>
      <point x="261.65" y="560.0" type="line"/>
      <point x="38.85" y="360.0" type="line"/>
      <point x="38.85" y="346.0" type="line"/>
      <point x="261.65" y="146.0" type="line"/>
      <point x="269.1" y="159.0" type="line"/>
      <point x="144.8" y="335.0" type="line"/>
      <point x="480.85" y="335.0" type="line"/>
      <point x="480.85" y="371.0" type="line"/>
      <point x="144.8" y="371.0" type="line"/>
      <point x="269.1" y="547.0" type="line"/>
    </contour>
  </outline>
</glyph>
<glyph name="Omega" format="2">
  <advance width="573.115"/>
  <unicode hex="A7B6"/>
  <outline>
    <contour>
      <point x="286.5575" y="720.0" type="curve" smooth="yes"/>
      <point x="424.5225" y="720.0"/>
      <point x="514.745" y="592.05"/>
      <point x="514.745" y="431.75" type="curve" smooth="yes"/>
      <point x="514.745" y="279.95"/>
      <point x="417.8125" y="158.1"/>
      <point x="342.695" y="54.7" type="curve"/>
      <point x="345.4025" y="75.9" type="line"/>
      <point x="418.64" y="75.9" type="line" smooth="yes"/>
      <point x="477.1725" y="75.9"/>
      <point x="500.145" y="83.85"/>
      <point x="505.4675" y="118.9" type="curve" smooth="yes"/>
      <point x="515.7" y="194.2" type="line"/>
      <point x="543.8225" y="194.2" type="line"/>
      <point x="543.8225" y="0.0" type="line"/>
      <point x="325.46" y="0.0" type="line"/>
      <point x="325.46" y="77.94999999999999" type="line"/>
      <point x="387.195" y="182.6"/>
      <point x="433.625" y="253.75"/>
      <point x="433.625" y="431.3" type="curve" smooth="yes"/>
      <point x="433.625" y="596.05"/>
      <point x="378.7575" y="680.8"/>
      <point x="286.5575" y="680.8" type="curve" smooth="yes"/>
      <point x="194.3575" y="680.8"/>
      <point x="140.2125" y="596.05"/>
      <point x="140.2125" y="431.3" type="curve" smooth="yes"/>
      <point x="140.2125" y="253.75"/>
      <point x="185.92" y="182.6"/>
      <point x="247.655" y="77.94999999999999" type="curve"/>
      <point x="247.655" y="0.0" type="line"/>
      <point x="29.2925" y="0.0" type="line"/>
      <point x="29.2925" y="194.2" type="line"/>
      <point x="57.415" y="194.2" type="line"/>
      <point x="68.37" y="118.9" type="line" smooth="yes"/>
      <point x="72.97" y="83.85"/>
      <point x="102.27499999999999" y="75.9"/>
      <point x="154.475" y="75.9" type="curve" smooth="yes"/>
      <point x="227.7125" y="75.9" type="line"/>
      <point x="231.015" y="54.7" type="line"/>
      <point x="155.3025" y="158.1"/>
      <point x="59.0925" y="279.95"/>
      <point x="59.0925" y="431.75" type="curve" smooth="yes"/>
      <point x="59.0925" y="592.05"/>
      <point x="149.315" y="720.0"/>
    </contour>
  </outline>
</glyph>
<glyph name="OE.alt" format="2">
  <advance width="690"/>
  <outline>
    <contour>
      <point x="394" y="0" type="line"/>
      <point x="274" y="0" type="line" smooth="yes"/>
      <point x="106" y="0"/>
      <point x="25" y="138"/>
      <point x="25" y="355" type="curve" smooth="yes"/>
      <point x="25" y="572"/>
      <point x="106" y="710"/>
      <point x="274" y="710" type="curve" smooth="yes"/>
      <point x="393" y="710" type="line"/>
      <point x="393" y="677" type="line"/>
      <point x="275" y="677" type="line" smooth="yes"/>
      <point x="151" y="677"/>
      <point x="113" y="558"/>
      <point x="113" y="355" type="curve" smooth="yes"/>
      <point x="113" y="152"/>
      <point x="151" y="33"/>
      <point x="275" y="33" type="curve" smooth="yes"/>
      <point x="394" y="33" type="line"/>
    </contour>
    <contour>
      <point x="665" y="187" type="line"/>
      <point x="665" y="0" type="line"/>
      <point x="337" y="0" type="line"/>
      <point x="337" y="710" type="line"/>
      <point x="651" y="710" type="line"/>
      <point x="651" y="548" type="line"/>
      <point x="623" y="548" type="line"/>
      <point x="607" y="619" type="line" smooth="yes"/>
      <point x="598" y="660"/>
      <point x="579" y="677"/>
      <point x="522" y="677" type="curve" smooth="yes"/>
      <point x="420" y="677" type="line"/>
      <point x="420" y="33" type="line"/>
      <point x="533" y="33" type="line" smooth="yes"/>
      <point x="593" y="33"/>
      <point x="613" y="50"/>
      <point x="621" y="94" type="curve" smooth="yes"/>
      <point x="637" y="187" type="line"/>
    </contour>
    <contour>
      <point x="396" y="380" type="line"/>
      <point x="520" y="380" type="line"/>
      <point x="539" y="380"/>
      <point x="547" y="411"/>
      <point x="547" y="445" type="curve" smooth="yes"/>
      <point x="547" y="452" type="line"/>
      <point x="573" y="452" type="line"/>
      <point x="573" y="275" type="line"/>
      <point x="547" y="275" type="line"/>
      <point x="547" y="282" type="line" smooth="yes"/>
      <point x="547" y="315"/>
      <point x="539" y="346"/>
      <point x="520" y="346" type="curve"/>
      <point x="396" y="346" type="line"/>
    </contour>
  </outline>
</glyph>
<glyph name="acute.uc" format="2">
  <advance width="351"/>
  <anchor x="144.8" y="727.0" name="_top"/>
  <outline>
    <contour>
      <point x="167.4825" y="871.8" type="curve" smooth="yes"/>
      <point x="126.4175" y="779.45" type="line"/>
      <point x="126.4175" y="765.5" type="line"/>
      <point x="143.8225" y="765.5" type="line"/>
      <point x="204.2375" y="809.35" type="line" smooth="yes"/>
      <point x="232.23" y="827.6"/>
      <point x="250.075" y="850.0552985074627"/>
      <point x="250.075" y="877.1" type="curve" smooth="yes"/>
      <point x="250.075" y="898.25"/>
      <point x="237.24" y="917.85"/>
      <point x="216.46" y="917.85" type="curve" smooth="yes"/>
      <point x="195.3125" y="917.85"/>
      <point x="181.8" y="902.15"/>
    </contour>
  </outline>
</glyph>
<glyph name="blacksquare" format="2">
  <advance width="413"/>
  <outline>
    <contour>
      <point x="59.5" y="104.0" type="line"/>
      <point x="353.4" y="104.0" type="line"/>
      <point x="353.4" y="522.0" type="line"/>
      <point x="59.5" y="522.0" type="line"/>
    </contour>
  </outline>
</glyph>
<glyph name="circumflex_acute.uc" format="2">
  <advance width="359"/>
  <anchor x="171.9" y="749.0" name="_top"/>
  <outline>
    <contour>
      <point x="309.71500000000003" y="955.05" type="curve" smooth="yes"/>
      <point x="271.6275" y="866.55" type="line"/>
      <point x="271.6275" y="852.8" type="line"/>
      <point x="288.065" y="852.8" type="line"/>
      <point x="344.48" y="892.0" type="line" smooth="yes"/>
      <point x="371.1580653349241" y="909.259372062082"/>
      <point x="389.9" y="931.3561363636363"/>
      <point x="389.9" y="958.6" type="curve" smooth="yes"/>
      <point x="389.9" y="980.4536538461539"/>
      <point x="376.96500000000003" y="1001.0"/>
      <point x="356.68" y="1001.0" type="curve" smooth="yes"/>
      <point x="336.7275" y="1001.0"/>
      <point x="322.86" y="985.25"/>
    </contour>
    <component base="circumflex.uc" xOffset="-91.4175"/>
  </outline>
</glyph>
<glyph name="circumflex_tilde.uc" format="2">
  <advance width="351"/>
  <anchor x="170.75" y="694.0" name="_top"/>
  <outline>
    <contour>
      <point x="213.255" y="864.7" type="line"/>
      <point x="288.8275" y="760.95" type="line"/>
      <point x="288.8275" y="749.95" type="line"/>
      <point x="258.4025" y="749.95" type="line"/>
      <point x="162.7725" y="813.85" type="line"/>
      <point x="183.285" y="813.85" type="line"/>
      <point x="88.355" y="749.95" type="line"/>
      <point x="64.53" y="749.95" type="line"/>
      <point x="64.53" y="760.95" type="line"/>
      <point x="140.2525" y="864.7" type="line"/>
    </contour>
    <contour>
      <point x="215.98499999999999" y="898.5" type="curve" smooth="yes"/>
      <point x="251.9875" y="898.5"/>
      <point x="274.25" y="929.45"/>
      <point x="286.195" y="985.15" type="curve"/>
      <point x="261.0275" y="997.2" type="line"/>
      <point x="254.5592275335042" y="968.9864643648643"/>
      <point x="245.21781914893617" y="954.05"/>
      <point x="230.0775" y="954.05" type="curve" smooth="yes"/>
      <point x="200.3612804878049" y="954.05"/>
      <point x="179.8435975609756" y="1000.0"/>
      <point x="140.98250000000002" y="1000.0" type="curve" smooth="yes"/>
      <point x="103.5075" y="1000.0"/>
      <point x="83.59" y="970.05"/>
      <point x="73.645" y="912.45" type="curve"/>
      <point x="98.8125" y="901.45" type="line"/>
      <point x="104.9625" y="927.7"/>
      <point x="114.45530487804878" y="942.65"/>
      <point x="128.7175" y="942.65" type="curve" smooth="yes"/>
      <point x="153.83414634146342" y="942.65"/>
      <point x="175.555" y="898.5"/>
    </contour>
  </outline>
</glyph>
<glyph name="four.lintab" format="2">
  <advance width="400"/>
  <outline>
    <contour>
      <point x="152" y="0" type="line"/>
      <point x="373" y="0" type="line"/>
      <point x="373" y="32" type="line"/>
      <point x="361" y="32" type="line" smooth="yes"/>
      <point x="316" y="32"/>
      <point x="305" y="40"/>
      <point x="305" y="71" type="curve"/>
      <point x="305" y="710" type="line"/>
      <point x="245" y="710" type="line"/>
      <point x="225" y="674" type="line"/>
      <point x="225" y="71" type="line"/>
      <point x="225" y="40"/>
      <point x="210" y="32"/>
      <point x="169" y="32" type="curve" smooth="yes"/>
      <point x="152" y="32" type="line"/>
    </contour>
    <contour>
      <point x="26" y="201" type="line"/>
      <point x="380" y="201" type="line"/>
      <point x="380" y="256" type="line"/>
      <point x="49" y="256" type="line"/>
      <point x="47" y="220" type="line"/>
      <point x="256" y="697" type="line"/>
      <point x="261" y="710" type="line"/>
      <point x="231" y="710" type="line"/>
      <point x="26" y="241" type="line"/>
    </contour>
  </outline>
</glyph>
<glyph name="guarani.proportional" format="2">
  <advance width="552"/>
  <outline>
    <contour>
      <point x="353.97" y="353.5" type="line"/>
      <point x="353.97" y="320.9" type="line"/>
      <point x="357.625" y="320.9" type="line" smooth="yes"/>
      <point x="385.165" y="320.9"/>
      <point x="405.395" y="313.9"/>
      <point x="405.395" y="284.9" type="curve"/>
      <point x="480.5725" y="284.9" type="line"/>
      <point x="480.5725" y="313.9"/>
      <point x="501.28749999999997" y="320.9"/>
      <point x="529.085" y="320.9" type="curve" smooth="yes"/>
      <point x="531.7075" y="320.9" type="line"/>
      <point x="531.7075" y="353.5" type="line"/>
    </contour>
    <contour>
      <point x="257.855" y="790.0" type="line"/>
      <point x="257.855" y="683.8" type="line"/>
      <point x="259.1675" y="673.85" type="line"/>
      <point x="259.1675" y="35.0" type="line"/>
      <point x="257.855" y="23.85" type="line"/>
      <point x="257.855" y="-120.0" type="line"/>
      <point x="290.3225" y="-120.0" type="line"/>
      <point x="290.3225" y="22.85" type="line"/>
      <point x="288.8825" y="33.2" type="line"/>
      <point x="288.8825" y="676.05" type="line"/>
      <point x="290.3225" y="682.3" type="line"/>
      <point x="290.3225" y="790.0" type="line"/>
    </contour>
    <contour>
      <point x="288.4175" y="9.0" type="curve" smooth="yes"/>
      <point x="372.8375" y="9.0"/>
      <point x="451.3" y="73.75"/>
      <point x="480.5725" y="130.6" type="curve"/>
      <point x="480.5725" y="330.9" type="line"/>
      <point x="405.395" y="332.55" type="line"/>
      <point x="405.395" y="113.1" type="line"/>
      <point x="380.9863836636875" y="78.99635349247625"/>
      <point x="349.34749999999997" y="42.4"/>
      <point x="290.03" y="42.4" type="curve" smooth="yes"/>
      <point x="182.9525" y="42.4"/>
      <point x="119.7225" y="160.7"/>
      <point x="119.7225" y="355.0" type="curve" smooth="yes"/>
      <point x="119.7225" y="543.551556603775"/>
      <point x="180.845" y="667.6"/>
      <point x="293.1375" y="667.6" type="curve" smooth="yes"/>
      <point x="356.1625" y="667.6"/>
      <point x="405.47146344493" y="628.033938246025"/>
      <point x="430.475" y="561.65" type="curve"/>
      <point x="441.3110445374775" y="595.2678474662225"/>
      <point x="416.19600942480247" y="629.5004955615625"/>
      <point x="395.4425" y="632.8" type="curve"/>
      <point x="395.4425" y="505.55" type="line"/>
      <point x="472.6175" y="505.55" type="line"/>
      <point x="472.6175" y="599.25" type="line"/>
      <point x="447.2575" y="656.35"/>
      <point x="376.03" y="701.0"/>
      <point x="291.84749999999997" y="701.0" type="curve" smooth="yes"/>
      <point x="140.5325" y="701.0"/>
      <point x="36.42" y="557.6"/>
      <point x="36.42" y="355.0" type="curve" smooth="yes"/>
      <point x="36.42" y="148.25"/>
      <point x="136.51" y="9.0"/>
    </contour>
  </outline>
</glyph>
<glyph name="horn" format="2">
  <advance width="351"/>
  <anchor x="181.5" y="444.0" name="_top"/>
  <outline>
    <contour>
      <point x="95.5875" y="506.0" type="curve"/>
      <point x="225.87457247637806" y="490.89909842836494"/>
      <point x="280.86" y="547.5963953488372"/>
      <point x="280.86" y="689.5" type="curve"/>
      <point x="216.23" y="689.5" type="line"/>
      <point x="215.93" y="557.9775"/>
      <point x="191.0225" y="527.8"/>
      <point x="73.4425" y="527.8" type="curve"/>
      <point x="73.7875" y="527.05"/>
      <point x="94.47" y="506.2"/>
    </contour>
  </outline>
</glyph>
<glyph name="hungarumlaut.uc" format="2">
  <advance width="351"/>
  <anchor x="189.1" y="694.0" name="_top"/>
  <outline>
    <contour>
      <point x="120.17" y="851.75" type="curve" smooth="yes"/>
      <point x="107.7325" y="770.7" type="line"/>
      <point x="107.7325" y="757.0" type="line"/>
      <point x="127.10499999999999" y="757.0" type="line"/>
      <point x="163.365" y="801.2" type="line" smooth="yes"/>
      <point x="185.5" y="826.7"/>
      <point x="196.7325" y="846.9"/>
      <point x="196.7325" y="872.3" type="curve" smooth="yes"/>
      <point x="196.7325" y="897.9"/>
      <point x="182.26666666666665" y="914.6"/>
      <point x="161.9125" y="914.6" type="curve" smooth="yes"/>
      <point x="140.42795454545455" y="914.6"/>
      <point x="127.125" y="898.3"/>
    </contour>
    <contour>
      <point x="239.935" y="851.75" type="curve" smooth="yes"/>
      <point x="227.37" y="770.7" type="line"/>
      <point x="227.37" y="757.0" type="line"/>
      <point x="246.87" y="757.0" type="line"/>
      <point x="282.40749999999997" y="801.2" type="line" smooth="yes"/>
      <point x="304.5425" y="826.7"/>
      <point x="315.6475" y="846.9"/>
      <point x="315.6475" y="872.3" type="curve" smooth="yes"/>
      <point x="315.6475" y="897.9"/>
      <point x="302.0316666666667" y="914.6"/>
      <point x="281.6775" y="914.6" type="curve" smooth="yes"/>
      <point x="260.19295454545454" y="914.6"/>
      <point x="246.89" y="898.3"/>
    </contour>
  </outline>
</glyph>
<glyph name="liraTurkish" format="2">
  <advance width="396"/>
  <outline>
    <contour>
      <point x="20.9925" y="402.15" type="line"/>
      <point x="20.9925" y="367.4" type="line"/>
      <point x="286.61" y="540.0" type="line"/>
      <point x="286.61" y="574.75" type="line"/>
    </contour>
    <contour>
      <point x="20.9925" y="238.05" type="line"/>
      <point x="20.9925" y="203.3" type="line"/>
      <point x="286.61" y="375.9" type="line"/>
      <point x="286.61" y="410.65" type="line"/>
    </contour>
    <contour>
      <point x="192.82" y="36.0" type="curve" smooth="yes"/>
      <point x="162.8075" y="36.0" type="line"/>
      <point x="162.8075" y="641.4" type="line" smooth="yes"/>
      <point x="162.8075" y="670.4"/>
      <point x="187.6725" y="677.4"/>
      <point x="215.4375" y="677.4" type="curve" smooth="yes"/>
      <point x="220.7275" y="677.4" type="line"/>
      <point x="220.7275" y="710.0" type="line"/>
      <point x="26.3475" y="710.0" type="line"/>
      <point x="26.3475" y="677.4" type="line"/>
      <point x="30.9925" y="677.4" type="line" smooth="yes"/>
      <point x="58.457499999999996" y="677.4"/>
      <point x="83.3" y="670.4"/>
      <point x="83.3" y="641.4" type="curve" smooth="yes"/>
      <point x="83.3" y="68.6" type="line" smooth="yes"/>
      <point x="83.3" y="39.6"/>
      <point x="58.585" y="32.6"/>
      <point x="30.9925" y="32.6" type="curve" smooth="yes"/>
      <point x="26.3475" y="32.6" type="line"/>
      <point x="26.3475" y="0.0" type="line"/>
      <point x="176.7375" y="0.0" type="line" smooth="yes"/>
      <point x="303.725" y="0.0"/>
      <point x="370.2125" y="96.0"/>
      <point x="377.3075" y="275.45" type="curve"/>
      <point x="318.45" y="299.3" type="line"/>
      <point x="316.15" y="129.65"/>
      <point x="272.765" y="36.0"/>
    </contour>
  </outline>
</glyph>
<glyph name="manat.proportional" format="2">
  <advance width="454"/>
  <outline>
    <contour>
      <point x="210.87" y="720.0" type="line"/>
      <point x="210.87" y="135.5" type="line"/>
      <point x="243.3575" y="135.5" type="line"/>
      <point x="243.3575" y="720.0" type="line"/>
    </contour>
    <contour>
      <point x="227.1775" y="550.35" type="curve" smooth="yes"/>
      <point x="321.51504545454543" y="550.35"/>
      <point x="346.2925" y="385.65"/>
      <point x="346.2925" y="0.0" type="curve"/>
      <point x="430.05" y="0.0" type="line"/>
      <point x="430.05" y="356.7"/>
      <point x="365.65889105058363" y="583.35"/>
      <point x="227.1775" y="583.35" type="curve" smooth="yes"/>
      <point x="87.97360894941635" y="583.35"/>
      <point x="24.305" y="356.7"/>
      <point x="24.305" y="0.0" type="curve"/>
      <point x="107.34" y="0.0" type="line"/>
      <point x="107.34" y="385.65"/>
      <point x="132.11745454545456" y="550.35"/>
    </contour>
  </outline>
</glyph>
<glyph name="minus.sub" format="2">
  <advance width="282"/>
  <outline>
    <contour>
      <point x="246.79500000000002" y="93.85" type="line"/>
      <point x="35.3225" y="93.85" type="line"/>
      <point x="35.3225" y="66.15" type="line"/>
      <point x="246.79500000000002" y="66.15" type="line"/>
    </contour>
  </outline>
</glyph>
<glyph name="nine.linprop" format="2">
  <advance width="387"/>
  <outline>
    <contour>
      <point x="67" y="-8" type="line"/>
      <point x="197" y="46"/>
      <point x="282" y="198"/>
      <point x="282" y="431" type="curve" smooth="yes"/>
      <point x="282" y="606"/>
      <point x="246" y="690"/>
      <point x="185" y="690" type="curve" smooth="yes"/>
      <point x="126" y="690"/>
      <point x="100" y="613"/>
      <point x="100" y="490" type="curve" smooth="yes"/>
      <point x="100" y="374"/>
      <point x="123" y="313"/>
      <point x="184" y="313" type="curve" smooth="yes"/>
      <point x="226" y="313"/>
      <point x="265" y="343"/>
      <point x="287" y="437" type="curve"/>
      <point x="286" y="427"/>
      <point x="294" y="417"/>
      <point x="296" y="411" type="curve"/>
      <point x="278" y="324"/>
      <point x="233" y="279"/>
      <point x="166" y="279" type="curve" smooth="yes"/>
      <point x="75" y="279"/>
      <point x="20" y="364"/>
      <point x="20" y="489" type="curve" smooth="yes"/>
      <point x="20" y="625"/>
      <point x="86" y="720"/>
      <point x="185" y="720" type="curve" smooth="yes"/>
      <point x="286" y="720"/>
      <point x="362" y="615"/>
      <point x="362" y="423" type="curve" smooth="yes"/>
      <point x="362" y="190"/>
      <point x="246" y="28"/>
      <point x="74" y="-30" type="curve"/>
    </contour>
  </outline>
</glyph>
<glyph name="nine.oldprop" format="2">
  <advance width="395"/>
  <outline>
    <contour>
      <point x="71" y="-170" type="line"/>
      <point x="201" y="-116"/>
      <point x="290" y="36"/>
      <point x="290" y="269" type="curve" smooth="yes"/>
      <point x="290" y="444"/>
      <point x="255" y="528"/>
      <point x="191" y="528" type="curve" smooth="yes"/>
      <point x="130" y="528"/>
      <point x="100" y="452"/>
      <point x="100" y="332" type="curve" smooth="yes"/>
      <point x="100" y="215"/>
      <point x="129" y="155"/>
      <point x="188" y="155" type="curve" smooth="yes"/>
      <point x="229" y="155"/>
      <point x="273" y="185"/>
      <point x="295" y="278" type="curve"/>
      <point x="294" y="269"/>
      <point x="302" y="256"/>
      <point x="304" y="251" type="curve"/>
      <point x="286" y="164"/>
      <point x="237" y="121"/>
      <point x="171" y="121" type="curve" smooth="yes"/>
      <point x="80" y="121"/>
      <point x="20" y="200"/>
      <point x="20" y="329" type="curve" smooth="yes"/>
      <point x="20" y="469"/>
      <point x="93" y="558"/>
      <point x="192" y="558" type="curve" smooth="yes"/>
      <point x="300" y="558"/>
      <point x="370" y="453"/>
      <point x="370" y="261" type="curve" smooth="yes"/>
      <point x="370" y="28"/>
      <point x="250" y="-134"/>
      <point x="78" y="-192" type="curve"/>
    </contour>
  </outline>
</glyph>
<glyph name="one.oldtab" format="2">
  <advance width="400"/>
  <outline>
    <contour>
      <point x="263" y="71" type="curve" smooth="yes"/>
      <point x="263" y="609" type="line"/>
      <point x="209" y="609" type="line"/>
      <point x="184" y="551"/>
      <point x="134" y="527"/>
      <point x="60" y="526" type="curve"/>
      <point x="60" y="468" type="line"/>
      <point x="119" y="467"/>
      <point x="180" y="516"/>
      <point x="194" y="568" type="curve"/>
      <point x="192" y="563"/>
      <point x="183" y="562"/>
      <point x="180" y="555" type="curve"/>
      <point x="180" y="71" type="line" smooth="yes"/>
      <point x="180" y="40"/>
      <point x="151" y="32"/>
      <point x="100" y="32" type="curve" smooth="yes"/>
      <point x="72" y="32" type="line"/>
      <point x="72" y="0" type="line"/>
      <point x="370" y="0" type="line"/>
      <point x="370" y="32" type="line"/>
      <point x="349" y="32" type="line" smooth="yes"/>
      <point x="294" y="32"/>
      <point x="263" y="40"/>
    </contour>
  </outline>
</glyph>
<glyph name="seven.oldtab" format="2">
  <advance width="400"/>
  <outline>
    <contour>
      <point x="167" y="534" type="line" smooth="yes"/>
      <point x="103" y="534"/>
      <point x="95" y="527"/>
      <point x="85" y="478" type="curve" smooth="yes"/>
      <point x="69" y="401" type="line"/>
      <point x="45" y="401" type="line"/>
      <point x="45" y="609" type="line"/>
      <point x="381" y="609" type="line"/>
      <point x="381" y="558" type="line"/>
      <point x="301" y="395"/>
      <point x="239" y="254"/>
      <point x="214" y="-77" type="curve"/>
      <point x="134" y="-77" type="line"/>
      <point x="167" y="227"/>
      <point x="320" y="504"/>
      <point x="363" y="569" type="curve"/>
      <point x="366" y="534" type="line"/>
    </contour>
  </outline>
</glyph>
<glyph name="three.lintab" format="2">
  <advance width="400"/>
  <outline>
    <contour>
      <point x="180" y="22" type="curve" smooth="yes"/>
      <point x="266" y="22"/>
      <point x="298" y="89"/>
      <point x="298" y="193" type="curve" smooth="yes"/>
      <point x="298" y="315"/>
      <point x="250" y="362"/>
      <point x="167" y="362" type="curve" smooth="yes"/>
      <point x="128" y="362" type="line"/>
      <point x="128" y="392" type="line"/>
      <point x="160" y="392" type="line" smooth="yes"/>
      <point x="228" y="392"/>
      <point x="276" y="430"/>
      <point x="276" y="549" type="curve" smooth="yes"/>
      <point x="276" y="658"/>
      <point x="236" y="690"/>
      <point x="184" y="690" type="curve" smooth="yes"/>
      <point x="142" y="690"/>
      <point x="112" y="669"/>
      <point x="94" y="625" type="curve"/>
      <point x="96" y="640"/>
      <point x="111" y="675"/>
      <point x="127" y="677" type="curve"/>
      <point x="127" y="559" type="line"/>
      <point x="57" y="559" type="line"/>
      <point x="57" y="650" type="line"/>
      <point x="80" y="685"/>
      <point x="129" y="720"/>
      <point x="198" y="720" type="curve" smooth="yes"/>
      <point x="285" y="720"/>
      <point x="356" y="664"/>
      <point x="356" y="553" type="curve" smooth="yes"/>
      <point x="356" y="428"/>
      <point x="266" y="374"/>
      <point x="165" y="374" type="curve"/>
      <point x="196" y="387" type="line"/>
      <point x="195" y="373" type="line"/>
      <point x="178" y="384" type="line"/>
      <point x="301" y="384"/>
      <point x="378" y="314"/>
      <point x="378" y="194" type="curve" smooth="yes"/>
      <point x="378" y="71"/>
      <point x="301" y="-10"/>
      <point x="187" y="-10" type="curve" smooth="yes"/>
      <point x="98" y="-10"/>
      <point x="34" y="38"/>
      <point x="13" y="140" type="curve"/>
      <point x="45" y="151" type="line"/>
      <point x="61" y="70"/>
      <point x="107" y="22"/>
    </contour>
  </outline>
</glyph>
<glyph name="three.oldprop" format="2">
  <advance width="398"/>
  <outline>
    <contour>
      <point x="173" y="-119" type="curve" smooth="yes"/>
      <point x="265" y="-119"/>
      <point x="293" y="-46"/>
      <point x="293" y="44" type="curve" smooth="yes"/>
      <point x="293" y="166"/>
      <point x="246" y="208"/>
      <point x="165" y="208" type="curve" smooth="yes"/>
      <point x="132" y="208" type="line"/>
      <point x="132" y="238" type="line"/>
      <point x="158" y="238" type="line" smooth="yes"/>
      <point x="224" y="238"/>
      <point x="271" y="286"/>
      <point x="271" y="395" type="curve" smooth="yes"/>
      <point x="271" y="496"/>
      <point x="232" y="528"/>
      <point x="180" y="528" type="curve" smooth="yes"/>
      <point x="138" y="528"/>
      <point x="106" y="507"/>
      <point x="88" y="463" type="curve"/>
      <point x="90" y="478"/>
      <point x="105" y="513"/>
      <point x="121" y="515" type="curve"/>
      <point x="121" y="397" type="line"/>
      <point x="51" y="397" type="line"/>
      <point x="51" y="488" type="line"/>
      <point x="73" y="521"/>
      <point x="122" y="558"/>
      <point x="192" y="558" type="curve" smooth="yes"/>
      <point x="278" y="558"/>
      <point x="351" y="501"/>
      <point x="351" y="398" type="curve" smooth="yes"/>
      <point x="351" y="284"/>
      <point x="262" y="220"/>
      <point x="163" y="220" type="curve"/>
      <point x="194" y="233" type="line"/>
      <point x="193" y="219" type="line"/>
      <point x="176" y="230" type="line"/>
      <point x="297" y="230"/>
      <point x="373" y="161"/>
      <point x="373" y="44" type="curve" smooth="yes"/>
      <point x="373" y="-68"/>
      <point x="303" y="-151"/>
      <point x="183" y="-151" type="curve" smooth="yes"/>
      <point x="91" y="-151"/>
      <point x="26" y="-103"/>
      <point x="5" y="-14" type="curve"/>
      <point x="37" y="-3" type="line"/>
      <point x="53" y="-71"/>
      <point x="99" y="-119"/>
    </contour>
  </outline>
</glyph>
<glyph name="two.den" format="2">
  <advance width="233"/>
  <outline>
    <contour>
      <point x="136" y="53" type="line" smooth="yes"/>
      <point x="172.0" y="53.0"/>
      <point x="176" y="57"/>
      <point x="180" y="76" type="curve" smooth="yes"/>
      <point x="189" y="119.0" type="line"/>
      <point x="213" y="119.0" type="line"/>
      <point x="213" y="0.0" type="line"/>
      <point x="18" y="0.0" type="line"/>
      <point x="18" y="38" type="line"/>
      <point x="91" y="97"/>
      <point x="144" y="167"/>
      <point x="144.0" y="255" type="curve" smooth="yes"/>
      <point x="144" y="298"/>
      <point x="131" y="321"/>
      <point x="99" y="321.0" type="curve" smooth="yes"/>
      <point x="73" y="321"/>
      <point x="61" y="307"/>
      <point x="53" y="295" type="curve"/>
      <point x="54" y="311"/>
      <point x="60" y="326"/>
      <point x="72" y="327" type="curve"/>
      <point x="72" y="246" type="line"/>
      <point x="22" y="246" type="line"/>
      <point x="22" y="307" type="line"/>
      <point x="39" y="328"/>
      <point x="68" y="347"/>
      <point x="111" y="347.0" type="curve" smooth="yes"/>
      <point x="171" y="347"/>
      <point x="204" y="309"/>
      <point x="204.0" y="251.0" type="curve" smooth="yes"/>
      <point x="204" y="152"/>
      <point x="109" y="80"/>
      <point x="49" y="40" type="curve"/>
      <point x="47" y="40"/>
      <point x="49" y="53"/>
      <point x="49" y="53" type="curve"/>
    </contour>
  </outline>
</glyph>
<glyph name="uni20AB.proportional" format="2">
  <advance width="442"/>
  <outline>
    <contour>
      <point x="113.10249999999999" y="253.7" type="curve" smooth="yes"/>
      <point x="113.10249999999999" y="394.55"/>
      <point x="145.896343283525" y="486.9"/>
      <point x="211.16" y="486.9" type="curve" smooth="yes"/>
      <point x="263.4404695431375" y="486.9"/>
      <point x="295.2525" y="441.75"/>
      <point x="323.945" y="340.05" type="curve"/>
      <point x="324.9225" y="341.95"/>
      <point x="338.7475" y="350.4"/>
      <point x="342.53" y="352.3" type="curve"/>
      <point x="306.4775" y="476.75"/>
      <point x="269.031748926985" y="527.8"/>
      <point x="195.42000000000002" y="527.8" type="curve" smooth="yes"/>
      <point x="98.5956944444775" y="527.8"/>
      <point x="30.765" y="414.75"/>
      <point x="30.765" y="253.7" type="curve" smooth="yes"/>
      <point x="30.765" y="94.75"/>
      <point x="97.68457317069749" y="-11.15"/>
      <point x="188.1425" y="-11.15" type="curve" smooth="yes"/>
      <point x="264.89750000000004" y="-11.15"/>
      <point x="299.93" y="49.7"/>
      <point x="339.2625" y="175.0" type="curve"/>
      <point x="334.7575" y="177.85"/>
      <point x="331.2325" y="186.7"/>
      <point x="323.0725" y="189.55" type="curve"/>
      <point x="292.4575" y="89.2"/>
      <point x="263.99500000004" y="29.75"/>
      <point x="205.70999999999998" y="29.75" type="curve" smooth="yes"/>
      <point x="145.05797619046" y="29.75"/>
      <point x="113.10249999999999" y="117.7"/>
    </contour>
    <contour>
      <point x="302.79" y="748.0" type="line"/>
      <point x="302.79" y="110.8" type="line"/>
      <point x="307.185" y="119.15" type="line"/>
      <point x="307.185" y="0.0" type="line"/>
      <point x="428.78999999999996" y="0.0" type="line"/>
      <point x="428.78999999999996" y="32.5" type="line"/>
      <point x="426.1675" y="32.6" type="line"/>
      <point x="400.175" y="32.9"/>
      <point x="381.955" y="39.75"/>
      <point x="381.955" y="68.1" type="curve" smooth="yes"/>
      <point x="381.955" y="748.0" type="line"/>
    </contour>
    <contour>
      <point x="67.24" y="-125.85" type="line"/>
      <point x="67.24" y="-161.5" type="line"/>
      <point x="403.42" y="-161.5" type="line"/>
      <point x="403.42" y="-125.85" type="line"/>
    </contour>
    <contour>
      <point x="179.6825" y="643.75" type="line"/>
      <point x="179.6825" y="608.6" type="line"/>
      <point x="438.0675" y="608.6" type="line"/>
      <point x="438.0675" y="643.75" type="line"/>
    </contour>
  </outline>
</glyph>
<glyph name="zero.slash" format="2">
  <advance width="404"/>
  <outline>
    <contour>
      <point x="103" y="140" type="line"/>
      <point x="319" y="447" type="line"/>
      <point x="303" y="470" type="line"/>
      <point x="87" y="163" type="line"/>
    </contour>
    <contour>
      <point x="202.0" y="-10.0" type="curve" smooth="yes"/>
      <point x="304.0" y="-10.0"/>
      <point x="379.0" y="93.0"/>
      <point x="379.0" y="305.0" type="curve" smooth="yes"/>
      <point x="379.0" y="516.0"/>
      <point x="304.0" y="619.0"/>
      <point x="202.0" y="619.0" type="curve" smooth="yes"/>
      <point x="100.0" y="619.0"/>
      <point x="25.0" y="516.0"/>
      <point x="25.0" y="305.0" type="curve" smooth="yes"/>
      <point x="25.0" y="93.0"/>
      <point x="100.0" y="-10.0"/>
    </contour>
    <contour>
      <point x="202.0" y="20.0" type="curve" smooth="yes"/>
      <point x="137.0" y="20.0"/>
      <point x="102.0" y="104.0"/>
      <point x="102.0" y="305.0" type="curve" smooth="yes"/>
      <point x="102.0" y="505.0"/>
      <point x="137.0" y="589.0"/>
      <point x="202.0" y="589.0" type="curve" smooth="yes"/>
      <point x="267.0" y="589.0"/>
      <point x="302.0" y="505.0"/>
      <point x="302.0" y="305.0" type="curve" smooth="yes"/>
      <point x="302.0" y="104.0"/>
      <point x="267.0" y="20.0"/>
    </contour>
  </outline>
</glyph>
